<svg id="Layer_1" data-name="Layer 1" xmlns="http://www.w3.org/2000/svg" viewBox="0 0 3995.01 4014.47"><rect width="3995.01" height="3995.01" fill="#28dddd"/><rect x="1283.69" y="1434.91" width="1565.18" height="1624.81" rx="347.93" fill="#fff"/><path d="M2503.43,1437.41c191.36,0,347.93,156.57,347.93,347.93v929c0,191.36-156.57,347.92-347.93,347.92H1634.11c-191.36,0-347.92-156.56-347.92-347.92v-929c0-191.36,156.56-347.93,347.92-347.93h869.32m0-51.82H1634.11c-220.42,0-399.75,179.33-399.75,399.75v929c0,220.42,179.33,399.74,399.75,399.74h869.32c220.42,0,399.75-179.32,399.75-399.74v-929c0-220.42-179.33-399.75-399.75-399.75Z" transform="translate(-2.5 -2.5)" fill="#371a45"/><path d="M3140,2380.68q-7.3,15.12-16.18,30.49c32.06,16,50.61,72.17,41.51,123.54a130,130,0,0,1-12.23,37.1c-.06.11-.17.23-.17.35a107,107,0,0,1-17.51,24.52,206.82,206.82,0,0,1-35,27.94,7.5,7.5,0,0,1-1,.69c-41.16,26-93,40.76-147,44-67.77,4.06-138.9-10-196.52-42.31-2.38-1.28-4.75-2.67-7.07-4.06-3-1.8-5.92-3.6-8.81-5.57a242.17,242.17,0,0,1-51-43.88L2537,1827.57l-30.49-149.74-3-14.49c14,4.75,28.06,9.57,41.92,14.49,9.27,3.31,18.43,6.61,27.59,9.92,28.64,10.55,56.93,21.39,84.58,32.69,244.17,99.54,445.39,230.32,505,396.58l0,.12a32.12,32.12,0,0,1,1.05,3.19,296.37,296.37,0,0,1,16.75,91.3,319.94,319.94,0,0,1-6.78,73.63c-6,28.52-15.94,57.91-30.15,88.17C3142.37,2375.86,3141.22,2378.3,3140,2380.68Z" transform="translate(-2.5 -2.5)" fill="#fff"/><path d="M2929.13,2693.31c-66.46,0-131.21-16-184.59-46-2.32-1.23-5-2.82-7.68-4.4-3.47-2.12-6.72-4.11-9.91-6.27a264.75,264.75,0,0,1-55.46-47.83,23.35,23.35,0,0,1-5.28-10.67L2480.7,1668a23.31,23.31,0,0,1,30.31-26.73c14.14,4.79,28.28,9.64,42.25,14.61,9.13,3.26,18.16,6.51,27.17,9.76l.67.25c31.63,11.65,59.55,22.44,85.34,33,288,117.4,462.22,255.24,517.89,409.71a.14.14,0,0,1,0,.06c.6,1.53,1.14,3.13,1.59,4.68a320.88,320.88,0,0,1,17.82,97.75,345,345,0,0,1-7.27,78.91c-6.5,30.78-17.22,62.16-31.87,93.35-1.26,2.65-2.48,5.21-3.75,7.71-2.18,4.5-4.49,9.08-6.91,13.69,28.81,28.64,43.49,82.24,34.31,134a152.78,152.78,0,0,1-14.45,43.71l-.08.13c0,.11-.11.23-.17.34a129.57,129.57,0,0,1-21.35,29.87,230.63,230.63,0,0,1-38.42,30.92c-.81.6-1.6,1.11-2.3,1.53-43.08,27.26-97.75,43.7-157.64,47.3Q2941.47,2693.32,2929.13,2693.31ZM2710.6,2562.63a220.9,220.9,0,0,0,42.12,35.18c3,2,5.55,3.58,8.13,5.15,2,1.21,4.05,2.41,6.1,3.5,51.94,29.15,118.89,43.5,184.12,39.6,51.87-3.12,98.74-17,135.56-40.19.42-.31.86-.61,1.3-.89a183.69,183.69,0,0,0,31-24.78,82.8,82.8,0,0,0,13.1-18.41c.18-.37.37-.73.56-1.09a106.6,106.6,0,0,0,9.77-30c7.85-44.31-8.82-88.62-29-98.67a23.31,23.31,0,0,1-9.78-32.48c5.66-9.84,10.83-19.59,15.38-29,.07-.16.15-.32.23-.48,1.11-2.18,2.17-4.41,3.24-6.64,13.08-27.86,22.65-55.81,28.39-83a298.24,298.24,0,0,0,6.29-68.19,274.64,274.64,0,0,0-15.45-84.23c-.19-.51-.35-1-.5-1.56a6,6,0,0,0-.19-.66c-.13-.31-.25-.62-.36-.92-50.79-141.71-216.28-270.53-491.85-382.86-25.3-10.34-52.71-20.94-83.84-32.41-9.32-3.36-18.28-6.6-27.35-9.83l-3.12-1.1Zm375.08,44v0Zm1.34-1-.13.09Zm66-33.7h0Z" transform="translate(-2.5 -2.5)" fill="#371a45"/><path d="M3164.59,2383.39c-35.64,64.87-96,119.75-173.29,121.43-8.24.27-9.68-11.69-1.62-13.39,67.38-16.91,104.83-68.17,132.79-128,13.46-30.42,57.39-9.67,42.12,19.94Z" transform="translate(-2.5 -2.5)" fill="#371a45"/><path d="M2689.63,2302.35c-.6-94.31,44-183.92,109.61-249.87,6.32-6.44,17,1.93,12,9.57-23.46,37.37-44.37,76.15-57.73,116.76-13.53,40.41-18.71,82.54-17.34,125-.34,32.57-48,31.28-46.58-1.42Z" transform="translate(-2.5 -2.5)" fill="#371a45"/><path d="M3171.17,2310.66a14.49,14.49,0,0,1-13.34-8.81c-55.58-130.3-238.67-197.78-399.82-147.33a14.5,14.5,0,0,1-8.65-27.67c174.7-54.67,374,20.25,435.13,163.63a14.49,14.49,0,0,1-13.32,20.18Z" transform="translate(-2.5 -2.5)" fill="#371a45"/><g opacity="0.25"><path d="M2631.49,1919.81c34.07,66.43,94.31,119,164.75,143.7a1016.69,1016.69,0,0,0-85.56,192,2610.51,2610.51,0,0,0-67.51-289Z" transform="translate(-2.5 -2.5)" fill="#371a45"/></g><g opacity="0.25"><path d="M2790.27,2489.24c8.05,29,28.52,53.51,53.2,70.76s53.41,27.8,82.49,35.63c43,11.57,88.43,17.5,132.14,9s85.66-33,108.2-71.41c-.47,18.79-10.28,36.14-22,50.87-45.55,57.33-121.37,84.58-194.59,85.3s-144.66-22.07-212.43-49.8c35.83-27.15,58.59-70.83,60.3-115.76Z" transform="translate(-2.5 -2.5)" fill="#371a45"/></g><g opacity="0.25"><path d="M3155.23,2075.42c10.36,25.94,9.37,54.87,7.28,82.73-4.83,64.29-15.24,129.88-47.09,185.93-33.91,59.67-89.78,104.1-149.57,137.8,3.15,14.31,23,16,37.23,12.62a180.53,180.53,0,0,0,68.8-32.93c36.93-28.66,61.27-70.56,79.94-113.41,24-55,40.11-117.83,20.81-174.67Z" transform="translate(-2.5 -2.5)" fill="#371a45"/></g><path d="M1650.78,1663.34l-3,14.49L1615,1838.88l-149.74,734.61a242.17,242.17,0,0,1-51,43.88c-5.16,3.42-10.43,6.61-15.88,9.63-3.71,2.14-7.48,4.11-11.31,6-55.42,28.06-121.79,40.06-185.21,36.29-54-3.24-105.86-18-147-44a4.65,4.65,0,0,1-.93-.69,206.81,206.81,0,0,1-35-27.94,107,107,0,0,1-17.51-24.52,1.26,1.26,0,0,1-.11-.3A128.44,128.44,0,0,1,989,2534.71c-9.1-51.37,9.45-107.54,41.5-123.54q-8.87-15.39-16.17-30.49c-1.22-2.38-2.38-4.82-3.54-7.25a409.44,409.44,0,0,1-27.65-77.28v-.05c-.93-3.66-1.74-7.25-2.49-10.84a313.43,313.43,0,0,1-6.78-73.63,296.37,296.37,0,0,1,16.75-91.3c.29-1,.64-2.15,1-3.19l.06-.12c58.55-163.3,253.8-292.4,492.18-391.3,25.33-10.5,51.19-20.7,77.39-30.5q23.57-8.87,47.59-17.39C1622.72,1672.91,1636.75,1668.09,1650.78,1663.34Z" transform="translate(-2.5 -2.5)" fill="#fff"/><path d="M1224.77,2693.29q-12.13,0-24.3-.72c-59.91-3.6-114.58-20.05-158.09-47.57a23,23,0,0,1-2.24-1.53,229.27,229.27,0,0,1-37.72-30.32,130,130,0,0,1-21.68-30.2c-.2-.37-.38-.75-.56-1.14A151.85,151.85,0,0,1,966,2538.72c-9.17-51.76,5.51-105.35,34.32-134q-3.71-7-7-13.93c-1.08-2.1-2.35-4.73-3.6-7.37a435.36,435.36,0,0,1-29.25-81.78c-.05-.2-.1-.4-.14-.59-.92-3.71-1.75-7.37-2.51-11a338.28,338.28,0,0,1-7.27-79.08,320.68,320.68,0,0,1,17.82-97.67c.44-1.51,1-3.06,1.53-4.55l.12-.31c54.88-152,224.76-288,504.91-404.23,26-10.75,52.25-21.11,78.17-30.8,15.36-5.78,31.51-11.68,48-17.52,14-5,28.1-9.82,42.24-14.61a23.31,23.31,0,0,1,30.31,26.72L1488.1,2578.14a23.35,23.35,0,0,1-5.28,10.67,265.66,265.66,0,0,1-55.9,48.12c-5.48,3.62-11.19,7.09-17.27,10.45-3.29,1.91-7.28,4-12.15,6.48C1346.75,2679.55,1286.18,2693.29,1224.77,2693.29Zm-156.71-87.17c37.12,23.13,83.69,36.84,135.19,39.94,61.42,3.67,123-8.36,173.29-33.82,3.5-1.75,6.86-3.5,10.17-5.41,5.37-3,10-5.82,14.68-8.89a221,221,0,0,0,42.31-35.31l176.1-863.95-3.13,1.11c-16.18,5.74-32.06,11.54-47.19,17.24-25.47,9.52-51.25,19.68-76.69,30.22-268,111.17-429.17,238.23-479.16,377.64-.11.32-.24.64-.37,1s-.15.49-.21.73c-.14.48-.29,1-.46,1.44a274.59,274.59,0,0,0-15.45,84.17,292.26,292.26,0,0,0,6.3,68.3c.68,3.27,1.42,6.55,2.27,9.89.08.32.15.64.22,1a388.32,388.32,0,0,0,25.94,72.18c1,2.13,2.08,4.36,3.18,6.54,4.78,9.88,10,19.63,15.62,29.47a23.3,23.3,0,0,1-9.79,32.48c-20.13,10.05-36.8,54.36-29,98.62a105.33,105.33,0,0,0,10,30.48l.48,1a82.15,82.15,0,0,0,13.27,18.44,183,183,0,0,0,30.75,24.45A19.73,19.73,0,0,1,1068.06,2606.12Zm-1.21-.77.53.34C1067.2,2605.56,1067,2605.45,1066.85,2605.35Z" transform="translate(-2.5 -2.5)" fill="#371a45"/><path d="M1031.81,2363.45c22,61.72,65.7,115.71,132.79,128,8,1.68,6.57,13.65-1.62,13.4-56.45,2-111-29.38-144.55-74a255.32,255.32,0,0,1-29.59-49.29c-12.37-29.37,30.56-47.53,43-18.09Z" transform="translate(-2.5 -2.5)" fill="#371a45"/><path d="M1418.07,2303.77c-1.73-25.44-4.41-52.73-9.84-77.68-5.07-25.49-13.68-51.15-23.22-75.24-8.29-19.92-17.4-39.65-27.22-59-4.35-9-10.93-21.62-15.2-30.63-3.84-8.14,7.34-15.21,13-8.15,28,34.92,54.39,72.21,74,114.29a374.12,374.12,0,0,1,23.54,65.78,430.61,430.61,0,0,1,11.54,69.24c1.41,32.38-45.6,34-46.58,1.42Z" transform="translate(-2.5 -2.5)" fill="#371a45"/><path d="M983.12,2310.66a14.49,14.49,0,0,1-13.33-20.18c61.15-143.38,260.42-218.31,435.13-163.63a14.5,14.5,0,0,1-8.66,27.67c-161.15-50.45-344.24,17-399.8,147.33A14.5,14.5,0,0,1,983.12,2310.66Z" transform="translate(-2.5 -2.5)" fill="#371a45"/><g opacity="0.25"><path d="M1522.79,1919.81c-34.07,66.43-94.31,119-164.75,143.7a1016.69,1016.69,0,0,1,85.56,192,2610.51,2610.51,0,0,1,67.51-289Z" transform="translate(-2.5 -2.5)" fill="#371a45"/></g><g opacity="0.25"><path d="M1364,2489.24c-8,29-28.52,53.51-53.2,70.76s-53.41,27.8-82.49,35.63c-43,11.57-88.43,17.5-132.14,9s-85.66-33-108.2-71.41c.47,18.79,10.28,36.14,22,50.87,45.55,57.33,121.37,84.58,194.59,85.3s144.66-22.07,212.43-49.8c-35.83-27.15-58.59-70.83-60.3-115.76Z" transform="translate(-2.5 -2.5)" fill="#371a45"/></g><g opacity="0.25"><path d="M999.05,2075.42c-10.36,25.94-9.37,54.87-7.28,82.73,4.83,64.29,15.24,129.88,47.09,185.93,33.91,59.67,89.78,104.1,149.57,137.8-3.15,14.31-23,16-37.23,12.62a180.65,180.65,0,0,1-68.81-32.93c-36.92-28.66-61.26-70.56-79.93-113.41-24-55-40.11-117.83-20.81-174.67Z" transform="translate(-2.5 -2.5)" fill="#371a45"/></g><g opacity="0.2"><ellipse cx="2055.4" cy="3889.39" rx="1007.85" ry="125.09" fill="#371a45"/></g><path d="M2851,3756.51c-.4,3.59-.87,7.19-1.56,10.66-18.84,106.44-149.57,144.47-384.87,115.19-106.55-13.27-253.86-29-292.7-109.91-77.51-161.51,1.62-488.35-7.59-697.69v-.4a904.48,904.48,0,0,1-191.83,0c-.06,1.68-.12,3.48-.17,5.16-7.89,209.56,69.5,532.64-7.48,692.93-38.84,80.93-186.09,96.64-292.64,109.91-235.6,29.28-366.32-8.81-384.93-115.53-.64-3.37-1.16-6.85-1.51-10.32-13.62-130,176.64-190.44,176.64-190.44s-41.51-276-68.87-525c-14.61-133-14.9-272-6.38-408.06,0-.52.06-1.1.12-1.68q1.21-19.31,2.67-38.6c9.27-123.48,25.51-243.95,44.46-354.73.35-2.15.7-4.29,1.1-6.44,16.35-94.84,34.61-182.43,52.29-258.72,18.26-79,35.77-145.8,49.69-195.71,10.43-37.39,18.78-65.39,23.88-81.92,3.42-11.36,5.39-17.39,5.39-17.39H2569.91s1.1,3.37,3.13,9.92c4.58,14.72,14,45.56,26.09,89.33,11.65,41.8,25.85,95.48,40.92,158.2,8.24,34.32,16.7,71.37,25.16,110.73,16.76,77.91,33.39,164.75,47.72,257,15.12,97.74,27.7,201.57,35.12,307.48.29,4.12.58,8.29.82,12.41.05.46.05.87.11,1.33,9.1,138.9,9.1,280.87-5.85,416.81-27.37,249-68.76,525-68.76,525S2864.52,3626.48,2851,3756.51Z" transform="translate(-2.5 -2.5)" fill="#fff"/><g opacity="0.25"><path d="M1964.77,3772.45c-38.86,80.91-186.1,96.62-292.66,109.88-235.59,29.29-366.31-8.76-384.95-115.51,192.85,73.09,532.81,31.35,590.94-61.38,75.28-120.08,87.48-240.1-29.59-389.71s-126.09-344.85-126.09-344.85c55.94,39.3,171,82,249.79,108.63C1964.33,3289.07,2041.73,3612.14,1964.77,3772.45Z" transform="translate(-2.5 -2.5)" fill="#371a45"/></g><g opacity="0.25"><path d="M2849.38,3767.2c-18.84,106.44-149.56,144.42-384.83,115.13-106.57-13.26-253.87-29-292.73-109.88-77.52-161.5,1.63-488.32-7.57-697.69,65.21-19.47,185.91-59.26,249.49-103.88,0,0,32,140.42-104.32,332.33-110,154.87-118,278.08-42.73,398.1C2320.06,3786.47,2637.37,3821.45,2849.38,3767.2Z" transform="translate(-2.5 -2.5)" fill="#371a45"/></g><path d="M1508.29,1919.8c-48.86,305.82-105.78,612.68-102.48,923.26.43,49.37,2.69,104.82,7.21,154,18,189.1,45.3,377.54,72.31,565.55l2.87,19.4c-21.71,6.82-45.47,15.64-66,26.24-71.56,35.07-143.26,101.38-101.93,185,58.47,104.47,284.48,74,387.18,61.18,67.83-9.47,142.86-18.5,200.5-54.06,16.73-11,29.43-23.54,36.94-40.59,19.74-43.38,26.13-91.17,29.35-138.49,9.79-183.31-30.89-363.33-25.13-547.93l1-24.83c38.72,4.7,79.12,7.64,118.25,7.58s79.56-2.92,118.25-7.58l1,24.83c7.2,201.92-45,400.18-19.68,600.51,5.15,32.89,12.77,66.31,29,95.54,27.45,40.51,78.52,54.95,126.41,67.14,34.34,8,69.94,13.23,106,17.88,104.1,12.61,215.1,27.34,315.75-5.6,31.28-11,57.86-29.57,71.44-55.58,13.25-26,16.22-59.34,4.68-86.88-25.21-59.18-94.46-96.63-153.76-118.11l-18.85-6.27,2.86-19.4c29-207.13,61.32-414.47,76.66-623.15,8.05-138.47,2.82-277.77-10.79-415.89-22-207.93-63-413.06-96.07-619.48a7.82,7.82,0,0,1,14.95-4.2c53.74,130.69,81.42,270.1,103,409.28,40.62,278.84,55.29,563.5,14.61,843.41q-25.35,208.95-56.29,416.95l-16-25.66c37.51,13,71.6,29.94,104.11,52.69,33,23.45,63.08,53.5,78.8,92.51,25,60.13,4.39,136.84-49,174.82-78.86,56.4-189.79,53.74-281.55,48.67-37.34-2.48-74.22-7.33-110.56-11.89-86.86-12.66-213.35-26.09-266-106.62-29-51.4-37.22-112-41.37-169.88-10.27-183.3,30.46-366.84,25.09-548.72l26,22.11a944,944,0,0,1-147.87,3.86c-16.48-.88-32.48-2-49.4-3.86l26-22.11c-5.38,181.89,35.36,365.41,25.08,548.72-3.06,47.89-10,96.38-27.58,141.47l-6,13.8c-10.88,25.1-32.17,46.24-53.7,60-66,41.23-145.33,50.72-220,61.28-36.34,4.56-73.21,9.41-110.55,11.89-105.33,6.13-265,8.85-323.82-97.59-59.4-122.87,42.55-216.69,148.5-260.52,9-3.82,17.56-7.21,27.71-10.58l-16,25.66q-30.45-206.1-55.78-412.65c-10.67-86-20.41-173.89-24-260.62-7-191.95,6.38-384.59,37.3-574.05,22-137.54,52.59-273.82,96.45-406.07a7.79,7.79,0,0,1,15.09,3.67Z" transform="translate(-2.5 -2.5)" fill="#371a45"/><path d="M2471.43,3401.89c-82.48,0-189.53-15.54-326.82-60.33a21.44,21.44,0,0,1,13.29-40.77c407.33,132.87,526.56-4.26,527.73-5.66a21.44,21.44,0,0,1,33.52,26.74C2715.51,3326.5,2653.05,3401.89,2471.43,3401.89Z" transform="translate(-2.5 -2.5)" fill="#371a45"/><path d="M1632.63,3411.84c-86.71,0-170-15.55-223.53-62.71a21.44,21.44,0,0,1,28.36-32.17c135.73,119.67,526.66-3.09,530.58-4.34a21.45,21.45,0,0,1,13,40.86C1970,3357,1795.39,3411.84,1632.63,3411.84Z" transform="translate(-2.5 -2.5)" fill="#371a45"/><path d="M2947.34,1256.85h0a18.13,18.13,0,0,1-18.18-18.08l-1.6-522.22a18.13,18.13,0,0,1,18.07-18.19h0c105-.32,190.47,84.58,190.79,189.62l.54,178.08C3137.28,1171.11,3052.39,1256.53,2947.34,1256.85Z" transform="translate(-2.5 -2.5)" fill="#fff"/><path d="M2947.29,1261a22.34,22.34,0,0,1-22.32-22.25l-1.6-522.23a22.31,22.31,0,0,1,22.25-22.38h.62A194.37,194.37,0,0,1,3140.6,888l.55,178.08c.32,107.19-86.61,194.65-193.8,195h-.06Zm-1.06-558.49h-.58a13.93,13.93,0,0,0-13.9,14l1.59,522.22a14,14,0,0,0,13.95,13.9h0c102.57-.31,185.76-84,185.44-186.58L3132.23,888a186,186,0,0,0-186-185.45Z" transform="translate(-2.5 -2.5)" fill="#371a45"/><g opacity="0.25"><path d="M3136.71,982.56l.27,83.52c.31,105-84.58,190.45-189.65,190.81a18.18,18.18,0,0,1-18.19-18.12l-.47-138.82a18.15,18.15,0,0,0,16.53,10.7l12.38-.07A190.07,190.07,0,0,0,3136.71,982.56Z" transform="translate(-2.5 -2.5)" fill="#371a45"/></g><path d="M2947.29,1280.15a41.46,41.46,0,0,1-41.43-41.31l-1.6-522.22a41.41,41.41,0,0,1,41.3-41.55h.68a213.49,213.49,0,0,1,213.47,212.84l.55,178.08c.36,117.73-95.12,213.8-212.85,214.16h-.12Zm3.59-558.42,1.56,511.73c89.63-3,161.49-77,161.22-167.32l-.54-178.09a166.91,166.91,0,0,0-162.24-166.32Z" transform="translate(-2.5 -2.5)" fill="#371a45"/><path d="M1221.89,703.63h0a18.13,18.13,0,0,1,18.19,18.08l1.59,522.22a18.13,18.13,0,0,1-18.07,18.19h0c-105,.32-190.46-84.58-190.78-189.62l-.55-178.08C1032,789.37,1116.85,704,1221.89,703.63Z" transform="translate(-2.5 -2.5)" fill="#fff"/><path d="M1223,1266.3c-106.92,0-194-86.8-194.38-193.79l-.54-178.08c-.33-107.18,86.61-194.65,193.79-195h.07a22.31,22.31,0,0,1,22.32,22.25l1.59,522.22a22.34,22.34,0,0,1-22.25,22.38Zm-1.11-558.48c-102.56.31-185.75,84-185.44,186.59l.55,178.07c.3,102.38,83.7,185.45,186,185.45h.58a14,14,0,0,0,13.9-14l-1.6-522.22a13.93,13.93,0,0,0-13.94-13.9Z" transform="translate(-2.5 -2.5)" fill="#371a45"/><g opacity="0.25"><path d="M1241.27,1099.06l.43,144.87a18.17,18.17,0,0,1-18.11,18.19,190.1,190.1,0,0,1-190.75-189.59l-.24-75a190.27,190.27,0,0,0,173.62,111.18l19-.06A18.33,18.33,0,0,0,1241.27,1099.06Z" transform="translate(-2.5 -2.5)" fill="#371a45"/></g><path d="M1223,1285.42c-117.43,0-213.13-95.34-213.49-212.85L1009,894.49c-.36-117.72,95.13-213.79,212.84-214.16h.15a41.43,41.43,0,0,1,41.42,41.31l1.59,522.22a41.49,41.49,0,0,1-41.29,41.56ZM1216.8,727c-89.64,3-161.5,77-161.23,167.32l.55,178.08c.27,90.29,72.58,163.86,162.24,166.33Zm5.16-.1h0Z" transform="translate(-2.5 -2.5)" fill="#371a45"/><g opacity="0.25"><path d="M2657.62,1720.44q-28.26,29.83-58.49,56.64T2537,1827.57c-152.87,113.16-335.88,172.29-529.1,156.64-143.6-11.65-277-63.36-392.87-145.33a904.61,904.61,0,0,1-77.62-61.74q-27.57-24.53-53.51-51.42c25.33-10.5,51.19-20.7,77.39-30.5,3.42-11.36,5.39-17.39,5.39-17.39h42.2c13.86-4.92,27.89-9.74,41.92-14.49l-3,14.49h858.67l-3-14.49c14,4.75,28.06,9.57,41.92,14.49h24.46s1.1,3.37,3.13,9.92C2601.68,1698.3,2630,1709.14,2657.62,1720.44Z" transform="translate(-2.5 -2.5)" fill="#371a45"/></g><circle cx="2082.23" cy="977.74" r="889.92" fill="#fff"/><path d="M2086,1874.39q-30.89,0-62-2.11c-238.28-16.21-456-124.24-613-304.19s-234.57-410.27-218.35-648.54,124.24-456,304.18-613S1907.2,72,2145.42,88.2c491.87,33.46,864.82,460.86,831.35,952.73-16.22,238.28-124.24,456-304.19,613C2508.29,1797.28,2302,1874.39,2086,1874.39ZM2084.12,94.48c-461.27,0-851.32,358.71-883.08,825.64-33.15,487.27,336.29,910.66,823.57,943.81,20.52,1.4,41,2.09,61.41,2.09,214,0,418.3-76.38,581.06-218.4,178.26-155.55,285.28-371.21,301.34-607.26s-60.77-464.2-216.32-642.47S2380.89,112.61,2144.85,96.55C2124.51,95.17,2104.22,94.48,2084.12,94.48Z" transform="translate(-2.5 -2.5)" fill="#371a45"/><g opacity="0.25"><path d="M2972.44,917.17a883.29,883.29,0,0,1,.17,123.49c-33.43,490.33-458,860.79-948.31,827.47s-860.79-458-827.47-948.3c1-14.1,2.24-28.19,3.86-42,30.45,436.28,378.66,794.27,827.31,824.81C2504.24,1735,2918.33,1386.47,2972.44,917.17Z" transform="translate(-2.5 -2.5)" fill="#371a45"/></g><path d="M2086.06,1893.51q-31.53,0-63.32-2.16c-243.37-16.56-465.72-126.9-626.1-310.69s-239.58-419-223-662.41,126.89-465.72,310.69-626.1,419-239.58,662.41-223c502.38,34.18,883.3,470.71,849.12,973.1-16.56,243.37-126.9,465.72-310.69,626.1C2517.35,1814.74,2306.66,1893.51,2086.06,1893.51ZM2084.13,113.6c-451.31,0-832.94,351-864,807.81-15.72,230.95,59.45,454.2,211.64,628.61s363.2,279.13,594.15,294.84c20.09,1.37,40.16,2.05,60.1,2.05,209.35,0,409.26-74.74,568.51-213.69,174.42-152.2,279.12-363.21,294.84-594.15S2889.9,584.88,2737.7,410.46s-363.2-279.13-594.15-294.84C2123.65,114.26,2103.79,113.6,2084.13,113.6Z" transform="translate(-2.5 -2.5)" fill="#371a45"/><path d="M2968.2,1063.26c-9.2,173.9-74.18,332.36-177.79,460.84-77.67,96.32-384.48,255.86-752.06,239.73-340.82-14.95-641.17-213-708.25-316.94-89.49-138.69-137.4-303.12-128.2-477,24.33-460.2,429.8-630.07,917.57-604.28S2992.53,603.07,2968.2,1063.26Z" transform="translate(-2.5 -2.5)" fill="#371a45"/><g opacity="0.5"><ellipse cx="2684.48" cy="999.86" rx="157.49" ry="114.12" transform="translate(1091.48 3379.9) rotate(-76.7)" fill="#fff"/></g><g opacity="0.5"><ellipse cx="2528.4" cy="1304.01" rx="72.29" ry="62.03" transform="translate(394.51 3185.77) rotate(-68.76)" fill="#fff"/></g><g opacity="0.35"><path d="M2819.13,624.86c102.52,108.73,158.81,253.54,149.06,438.37-9.19,173.94-74.22,332.39-177.76,460.87-77.69,96.32-384.52,255.85-752.1,239.76-129.79-5.66-253.66-37.91-361.08-81.45,452.26,10.15,826.08-185.8,922.4-305.27,131.51-163.06,214-364.2,225.61-584.87A900.41,900.41,0,0,0,2819.13,624.86Z" transform="translate(-2.5 -2.5)" fill="#111a28"/></g><path d="M2913.5,679a23.07,23.07,0,0,1-15.5-6l-2.36-2.12-1.83-2.79c-138.49-217.65-421.2-353.22-775.65-372-356.35-18.83-651.74,90.08-810.32,298.82l-1.24,1.5a23.3,23.3,0,0,1-35.47-30.2c168.14-220.89,477.72-336.31,849.49-316.66,369.43,19.54,665.42,162.77,812.21,393A23.33,23.33,0,0,1,2913.5,679Z" transform="translate(-2.5 -2.5)" fill="#371a45"/><g opacity="0.5"><path d="M1385.76,1268.41S1267.23,806.9,1521.47,638.92s606.19-148.63,596.77-126.49c0,0-394.69,73.74-563.45,373.75C1424.65,1117.53,1385.76,1268.41,1385.76,1268.41Z" transform="translate(-2.5 -2.5)" fill="#fff"/></g><path d="M1968.66,3097.4c-57.63-13.19-112.06-34.53-164.48-61.27a648,648,0,0,1-88.4-55.67,11.65,11.65,0,0,1,13.33-19.1c56.43,35.31,118.75,60.69,183.13,77.19,20.84,5.29,43.41,10.18,64.29,12.91,31.65,5.16,23.85,51.58-7.87,45.94Z" transform="translate(-2.5 -2.5)" fill="#371a45"/><path d="M2160,3051.41c86.87-13,172.24-43.61,247-90a11.65,11.65,0,0,1,13.33,19.1c-18.69,13.71-37.77,27.11-57.94,38.66-50.19,29.64-104.22,52.55-160.1,69.24-11.43,3.31-22.32,6.34-34.84,9a23.33,23.33,0,1,1-7.45-46Z" transform="translate(-2.5 -2.5)" fill="#371a45"/><path d="M1458.16,3547.68c88-22.93,199.9-6.27,265.45,60,2.18,2.15-.68,5.9-3.32,4.24-39.27-21.12-81.54-31.27-125.38-33.7-42.33-2.12-86.32,1.88-128.48,6.24-23.23,3.16-30.56-29.82-8.27-36.76Z" transform="translate(-2.5 -2.5)" fill="#371a45"/><path d="M2670.15,3583.85c-59.91-6.68-122.28-12.56-181.33,3.8-20,5.27-38.79,14-57.73,24.22-2.46,1.45-5.24-2.06-3.17-4.11a193.22,193.22,0,0,1,52.83-40.36c50.25-25.23,108.74-33.59,164.32-26.26a199.12,199.12,0,0,1,33.57,7.13c21.63,7.12,13.9,38.95-8.49,35.58Z" transform="translate(-2.5 -2.5)" fill="#371a45"/><g opacity="0.25"><path d="M1733.63,2978s177.11,28.49,313.89,28.49S2403.23,2978,2403.23,2978s-131.44,100.71-341,96.38C1847.41,3070,1733.63,2978,1733.63,2978Z" transform="translate(-2.5 -2.5)" fill="#371a45"/></g><g opacity="0.25"><path d="M2759.74,2692.9c-86.83,9.87-204.25,15.79-293.42-7.59v44.85c0,62.05-50.71,112.82-112.7,112.82H1737.93c-62,0-112.76-50.77-112.76-112.82v-35.79c-85.31,13-185.43,6.24-259.73-2.77a114.56,114.56,0,0,1-12.53-2.28q2-15.21,4.07-30.75c7.75-57.81,16.81-118.18,27.38-180.5,68.29,3.15,161.25,5.1,240.81-1.79v-80.43c0-62,50.71-112.76,112.76-112.76h615.69c49.52,0,91.88,32.44,106.9,77.07a112.73,112.73,0,0,1,5.8,35.69v75.39c79,11.44,182.29,10.9,261.69,7.81,10.52,62,19.53,122,27.23,179.47C2756.81,2670.07,2758.28,2681.57,2759.74,2692.9Z" transform="translate(-2.5 -2.5)" fill="#371a45"/></g><path d="M1738.06,2602.52c-86.28,34.93-219.81,27.62-310.84,16.6a97.74,97.74,0,0,1-84.88-111.39h0a97.72,97.72,0,0,1,101.17-83.4c85.14,4,212.86,5.86,293.74-12.08" transform="translate(-2.5 -2.5)" fill="#fff"/><g opacity="0.25"><path d="M1738.08,2602.5c-86.27,34.93-219.86,27.67-310.87,16.61-54.57-6.57-92.91-57-84.89-111.41a96.05,96.05,0,0,1,10.74-32.21,97.41,97.41,0,0,0,74.15,50.53c90.89,11,224.22,18.31,310.49-16.49Z" transform="translate(-2.5 -2.5)" fill="#371a45"/></g><path d="M1566.5,2651.52c-49.93,0-99.57-4.12-142.08-9.27a121.1,121.1,0,0,1,20.18-241.19c125.39,5.86,227.51,1.77,287.61-11.56,12.18-2.7,42.4-2.79,60.19,54.39,18,57.94,16,155.29-45.61,180.22C1696.15,2644.62,1631.09,2651.52,1566.5,2651.52Zm-127.64-204A74.51,74.51,0,0,0,1430,2596c130.11,15.74,236.39,10.39,299.29-15.07h0c18.33-7.42,23.72-37.13,25.19-49.56,5.22-44.14-8.13-85.24-16.59-95.42-82.09,17.2-205.59,15.88-295.49,11.66C1441.23,2447.55,1440,2447.52,1438.86,2447.52Z" transform="translate(-2.5 -2.5)" fill="#371a45"/><path d="M2398,2602.52c86.28,34.93,219.81,27.62,310.84,16.6a97.74,97.74,0,0,0,84.88-111.39h0a97.72,97.72,0,0,0-101.17-83.4c-85.15,4-212.86,5.86-293.75-12.08" transform="translate(-2.5 -2.5)" fill="#fff"/><g opacity="0.25"><path d="M2708.85,2619.11c-91.08,11.06-224.6,18.32-310.87-16.61l.38-92.78c86.27,34.8,219.54,27.47,310.49,16.48a97.58,97.58,0,0,0,74.21-50.65,97.91,97.91,0,0,1,10.68,32.15C2801.76,2562.14,2763.42,2612.54,2708.85,2619.11Z" transform="translate(-2.5 -2.5)" fill="#371a45"/></g><path d="M2569.55,2651.52c-64.59,0-129.64-6.9-180.3-27.41h0c-61.58-24.93-63.62-122.28-45.6-180.22,17.78-57.18,48-57.08,60.19-54.39,60.09,13.33,162.24,17.43,287.61,11.56a121.1,121.1,0,0,1,20.18,241.19C2669.12,2647.39,2619.47,2651.52,2569.55,2651.52Zm-162.82-70.6c62.9,25.46,169.21,30.81,299.3,15.07a74.51,74.51,0,0,0-12.4-148.39c-89.91,4.22-213.39,5.54-295.49-11.66-8.46,10.18-21.81,51.28-16.59,95.42,1.46,12.43,6.86,42.14,25.18,49.56Z" transform="translate(-2.5 -2.5)" fill="#371a45"/><path d="M2431.33,2349.36v304.93c0,56.59-46.3,102.89-102.83,102.89H1767c-56.6,0-102.83-46.3-102.83-102.89V2349.36c0-56.53,46.23-102.83,102.83-102.83H2328.5c45.16,0,83.81,29.56,97.52,70.3A102.68,102.68,0,0,1,2431.33,2349.36Z" transform="translate(-2.5 -2.5)" fill="#fff"/><g opacity="0.25"><path d="M2431.33,2349.36v304.93c0,56.59-46.3,102.89-102.83,102.89H1767c-56.6,0-102.83-46.3-102.83-102.89V2551.66c96.89,53.62,323.74,141.94,428,89.42C2158,2607.9,2158,2501.84,2158,2501.84s138-101.36,172.31-18.09c67.71,164,86.67-134.82,95.74-166.92A102.68,102.68,0,0,1,2431.33,2349.36Z" transform="translate(-2.5 -2.5)" fill="#371a45"/></g><path d="M2328.49,2780.45H1766.92a126.27,126.27,0,0,1-126.13-126.13v-305a126.27,126.27,0,0,1,126.13-126.12h561.57a126.27,126.27,0,0,1,126.13,126.12v305A126.27,126.27,0,0,1,2328.49,2780.45Zm-561.57-510.61a79.62,79.62,0,0,0-79.53,79.52v305a79.62,79.62,0,0,0,79.53,79.53h561.57a79.62,79.62,0,0,0,79.53-79.53v-305a79.62,79.62,0,0,0-79.53-79.52Z" transform="translate(-2.5 -2.5)" fill="#371a45"/><circle cx="2244.15" cy="2499.35" r="88.68" fill="#008cff"/><g opacity="0.5"><path d="M2335.34,2501.83a89.11,89.11,0,0,1-2.66,21.69,88.72,88.72,0,0,0-172,0,88.69,88.69,0,1,1,174.69-21.69Z" transform="translate(-2.5 -2.5)" fill="#fff"/></g><g opacity="0.25"><path d="M2335.32,2501.83a88.68,88.68,0,1,1-174.13-23.75,88.72,88.72,0,0,0,170.91,0A89.18,89.18,0,0,1,2335.32,2501.83Z" transform="translate(-2.5 -2.5)" fill="#371a45"/></g><path d="M2246.64,2608a106.16,106.16,0,1,1,106.16-106.16A106.27,106.27,0,0,1,2246.64,2608Zm0-177.36a71.21,71.21,0,1,0,71.21,71.2A71.28,71.28,0,0,0,2246.64,2430.64Z" transform="translate(-2.5 -2.5)" fill="#371a45"/><path d="M1995.35,2780.45a23.3,23.3,0,0,1-23.3-23.3V2610a118.22,118.22,0,0,0-46.87-93.95,165,165,0,0,1-65.44-131.17V2246.54a23.3,23.3,0,0,1,46.6,0v138.34a118.15,118.15,0,0,0,46.86,93.94A165,165,0,0,1,2018.65,2610v147.15A23.3,23.3,0,0,1,1995.35,2780.45Z" transform="translate(-2.5 -2.5)" fill="#371a45"/></svg>